<svg width="20" height="20" viewBox="0 0 20 20" fill="none" xmlns="http://www.w3.org/2000/svg">
<path d="M10 20C10 18.6167 9.73333 17.3167 9.2 16.1C8.68333 14.8833 7.975 13.825 7.075 12.925C6.175 12.025 5.11667 11.3167 3.9 10.8C2.68333 10.2667 1.38333 10 5.96046e-08 10C1.38333 10 2.68333 9.74167 3.9 9.225C5.11667 8.69167 6.175 7.975 7.075 7.075C7.975 6.175 8.68333 5.11667 9.2 3.9C9.73333 2.68333 10 1.38333 10 -4.76837e-07C10 1.38333 10.2583 2.68333 10.775 3.9C11.3083 5.11667 12.025 6.175 12.925 7.075C13.825 7.975 14.8833 8.69167 16.1 9.225C17.3167 9.74167 18.6167 10 20 10C18.6167 10 17.3167 10.2667 16.1 10.8C14.8833 11.3167 13.825 12.025 12.925 12.925C12.025 13.825 11.3083 14.8833 10.775 16.1C10.2583 17.3167 10 18.6167 10 20Z" fill="#1A73E8"/>
</svg>